<svg xmlns="http://www.w3.org/2000/svg" viewBox="0 0 750 500"><g id="freepik--background-simple--inject-137"><path d="M709.9,297.25c7.47-49.91,1-100.42-30.12-143.52-35.67-49.33-92.17-84.19-152.23-94.08a207.71,207.71,0,0,0-32.37-2.79A235.06,235.06,0,0,0,419,69c-41.45,14-77.08,38.39-109.3,67.5C295.39,149.42,281.42,166,262.47,172c-19.67,6.28-40.83-1.8-60-6.74C166.54,156,113.8,136,78,155c-47,25-61,80-43,123s73,46,79,79,35,82,98,77,87-59,127-43c14.07,5.63,25.12,16,37.09,24.91,16.67,12.44,34.75,20.91,55.27,24.81,29.34,5.58,61.38,2.63,91,1.21,34-1.64,70.58-.39,103.59-12.27,35.44-12.77,57.82-40.75,69.83-75.83A322.63,322.63,0,0,0,709.9,297.25Z" style="fill:#92E3A9"></path><path d="M709.9,297.25c7.47-49.91,1-100.42-30.12-143.52-35.67-49.33-92.17-84.19-152.23-94.08a207.71,207.71,0,0,0-32.37-2.79A235.06,235.06,0,0,0,419,69c-41.45,14-77.08,38.39-109.3,67.5C295.39,149.42,281.42,166,262.47,172c-19.67,6.28-40.83-1.8-60-6.74C166.54,156,113.8,136,78,155c-47,25-61,80-43,123s73,46,79,79,35,82,98,77,87-59,127-43c14.07,5.63,25.12,16,37.09,24.91,16.67,12.44,34.75,20.91,55.27,24.81,29.34,5.58,61.38,2.63,91,1.21,34-1.64,70.58-.39,103.59-12.27,35.44-12.77,57.82-40.75,69.83-75.83A322.63,322.63,0,0,0,709.9,297.25Z" style="fill:#fff;opacity:0.7000000000000001"></path></g><g id="freepik--Device--inject-137"><path d="M454,396H627.5A12.5,12.5,0,0,0,640,383.5V62.5A12.5,12.5,0,0,0,627.5,50h-502A12.5,12.5,0,0,0,113,62.5v321A12.5,12.5,0,0,0,125.5,396H299" style="fill:none;stroke:#000;stroke-linecap:round;stroke-linejoin:round"></path><rect x="124" y="64" width="504" height="295" style="fill:none;stroke:#000;stroke-linecap:round;stroke-linejoin:round"></rect><rect x="299" y="396" width="155" height="34.95" style="fill:none;stroke:#000;stroke-linecap:round;stroke-linejoin:round"></rect><polyline points="454 430.95 481 430.95 481 444.29 272 444.29 272 430.95 299 430.95" style="fill:none;stroke:#000;stroke-linecap:round;stroke-linejoin:round"></polyline></g><g id="freepik--Graphics--inject-137"><path d="M693.08,246.2l-6.92-.17-.1,3.94a22.86,22.86,0,0,0-5,1.1l-1.95-3.57L673,250.82l1.88,3.45a23.78,23.78,0,0,0-3.81,3.49l-3.47-2.13L664,261.54l3.35,2a23.38,23.38,0,0,0-1.55,4.93l-4.07-.11-.17,6.93,3.94.1a22.86,22.86,0,0,0,1.1,5L663,282.42l3.31,6.09,3.46-1.88a23.23,23.23,0,0,0,3.48,3.8l-2.12,3.48,5.91,3.61,2.05-3.35a23.48,23.48,0,0,0,4.92,1.55l-.1,4.07,6.93.17L691,296a22.86,22.86,0,0,0,5-1.1l1.94,3.57,6.09-3.31-1.89-3.46a23.34,23.34,0,0,0,3.81-3.48l3.47,2.12,3.62-5.91-3.36-2.05a22.82,22.82,0,0,0,1.55-4.93l4.07.11.18-6.93-3.94-.1a23.45,23.45,0,0,0-1.1-5l3.56-1.94-3.31-6.09-3.46,1.89a22.48,22.48,0,0,0-3.48-3.81l2.13-3.48L700,248.47l-2.05,3.36a22.58,22.58,0,0,0-4.92-1.56Zm-5,43.47a16.68,16.68,0,1,1,17.09-16.26A16.69,16.69,0,0,1,688.08,289.67Z" style="fill:none;stroke:#000;stroke-linecap:round;stroke-linejoin:round;opacity:0.2"></path><path d="M673.51,194.44l-6.92-.17-.1,3.93a23.33,23.33,0,0,0-5,1.11l-2-3.57-6.08,3.31,1.88,3.46a23.72,23.72,0,0,0-3.81,3.48L648,203.87l-3.61,5.91,3.35,2.05a23.3,23.3,0,0,0-1.55,4.92l-4.07-.1-.17,6.93,3.93.09a23.42,23.42,0,0,0,1.11,5.05l-3.57,1.94,3.31,6.08,3.46-1.88a23.3,23.3,0,0,0,3.48,3.81l-2.12,3.47,5.91,3.62,2-3.36a22.73,22.73,0,0,0,4.92,1.55l-.1,4.07,6.93.18.1-3.94a22.88,22.88,0,0,0,5-1.11l1.94,3.57,6.08-3.31L682.56,240a23.3,23.3,0,0,0,3.81-3.48l3.47,2.12,3.62-5.91-3.36-2.05a22.56,22.56,0,0,0,1.55-4.92l4.07.1.18-6.92-3.94-.1a22.63,22.63,0,0,0-1.11-5l3.57-1.95-3.31-6.08-3.46,1.88a23.26,23.26,0,0,0-3.48-3.81l2.12-3.47-5.91-3.61-2,3.35a23.11,23.11,0,0,0-4.92-1.55Zm-5,43.46a16.68,16.68,0,1,1,17.09-16.25A16.68,16.68,0,0,1,668.51,237.9Z" style="fill:none;stroke:#000;stroke-linecap:round;stroke-linejoin:round;opacity:0.2"></path><path d="M336.44,130V123H332.5a23.09,23.09,0,0,0-1.23-5l3.52-2-3.47-6-3.41,2a23.71,23.71,0,0,0-3.57-3.72l2-3.52-6-3.47-2,3.41a23.75,23.75,0,0,0-5-1.43V99.15h-6.93v3.94a23.09,23.09,0,0,0-5,1.23l-2-3.52-6,3.47,2,3.41a24.15,24.15,0,0,0-3.72,3.57l-3.52-2-3.46,6,3.4,2a23.75,23.75,0,0,0-1.43,5h-4.07v6.93h3.94a23.09,23.09,0,0,0,1.23,5l-3.52,2,3.47,6,3.41-2a24.15,24.15,0,0,0,3.57,3.72l-2,3.52,6,3.46,2-3.4a23.75,23.75,0,0,0,5,1.43V153h6.93V149a23.09,23.09,0,0,0,5-1.23l2,3.52,6-3.47-2-3.41a23.71,23.71,0,0,0,3.72-3.57l3.52,2,3.47-6-3.41-2a23.75,23.75,0,0,0,1.43-5Zm-43.58-3.91a16.68,16.68,0,1,1,16.68,16.68A16.68,16.68,0,0,1,292.86,126.05Z" style="fill:none;stroke:#000;stroke-linecap:round;stroke-linejoin:round;opacity:0.2"></path><path d="M387.69,109.09v-6.93h-3.93a23.09,23.09,0,0,0-1.23-5l3.51-2-3.46-6-3.41,2a22.91,22.91,0,0,0-3.58-3.72l2-3.53-6-3.46-2,3.4a22.81,22.81,0,0,0-5-1.42V78.29h-6.92v3.94a22.75,22.75,0,0,0-5,1.23l-2-3.52-6,3.46,2,3.41A22.91,22.91,0,0,0,343,90.39l-3.52-2-3.47,6,3.41,2a22.29,22.29,0,0,0-1.43,5H333.9v6.93h3.94a23.38,23.38,0,0,0,1.23,5l-3.52,2,3.46,6,3.42-2A22.85,22.85,0,0,0,346,123l-2,3.52,6,3.47,2-3.41a22.44,22.44,0,0,0,5,1.43v4.07h6.93v-3.94a22.53,22.53,0,0,0,5-1.23l2,3.52,6-3.46-2-3.41a23.34,23.34,0,0,0,3.72-3.58l3.53,2,3.46-6-3.4-2a22.81,22.81,0,0,0,1.42-5Zm-43.57-3.91a16.68,16.68,0,1,1,16.68,16.68A16.67,16.67,0,0,1,344.12,105.18Z" style="fill:none;stroke:#000;stroke-linecap:round;stroke-linejoin:round;opacity:0.2"></path><g style="opacity:0.2"><circle cx="181.22" cy="313.11" r="17.7" style="fill:none;stroke:#000;stroke-linecap:round;stroke-linejoin:round"></circle><circle cx="181.22" cy="313.11" r="13.52" transform="translate(-159.99 433.33) rotate(-79.35)" style="fill:none;stroke:#000;stroke-linecap:round;stroke-linejoin:round"></circle><path d="M207.14,325.25l-9.55-5.18L196,323l9.56,5.17h0a1.67,1.67,0,0,0,.67,2.26l18.21,9.86a1.67,1.67,0,0,0,2.26-.67l1.59-2.93a1.68,1.68,0,0,0-.68-2.26l-18.21-9.86a1.68,1.68,0,0,0-2.26.68Z" style="fill:none;stroke:#000;stroke-miterlimit:10"></path></g><path d="M479,110a19.34,19.34,0,1,1-19.34-19.33" style="fill:none;stroke:#000;stroke-linecap:round;stroke-linejoin:round;opacity:0.2"></path><path d="M479,110H459.66V90.67A19.34,19.34,0,0,1,479,110Z" style="fill:none;stroke:#000;stroke-linecap:round;stroke-linejoin:round;opacity:0.2"></path><polyline points="477 96.67 487 88.67 501 88.67" style="fill:none;stroke:#000;stroke-linecap:round;stroke-linejoin:round;opacity:0.2"></polyline><line x1="509" y1="88.67" x2="527.66" y2="88.67" style="fill:none;stroke:#000;stroke-linecap:round;stroke-linejoin:round;opacity:0.2"></line><line x1="509" y1="94.67" x2="527.66" y2="94.67" style="fill:none;stroke:#000;stroke-linecap:round;stroke-linejoin:round;opacity:0.2"></line><line x1="509" y1="100.67" x2="527.66" y2="100.67" style="fill:none;stroke:#000;stroke-linecap:round;stroke-linejoin:round;opacity:0.2"></line><line x1="509" y1="106.67" x2="527.66" y2="106.67" style="fill:none;stroke:#000;stroke-linecap:round;stroke-linejoin:round;opacity:0.2"></line><g style="opacity:0.2"><polygon points="264.22 316.11 263.5 312.59 250.84 312.59 251.56 316.11 252.21 319.25 256.51 340.25 290.31 340.25 285.37 316.11 264.22 316.11" style="fill:none;stroke:#000;stroke-linecap:round;stroke-linejoin:round"></polygon><polyline points="290.31 340.25 296.54 317.74 285.89 317.74" style="fill:none;stroke:#000;stroke-linecap:round;stroke-linejoin:round"></polyline></g><g style="opacity:0.2"><polygon points="311.68 316.11 310.95 312.59 298.3 312.59 299.02 316.11 299.67 319.25 303.97 340.25 337.77 340.25 332.82 316.11 311.68 316.11" style="fill:none;stroke:#000;stroke-linecap:round;stroke-linejoin:round"></polygon><polyline points="337.77 340.25 344 317.74 333.35 317.74" style="fill:none;stroke:#000;stroke-linecap:round;stroke-linejoin:round"></polyline></g></g><g id="freepik--Floor--inject-137"><line x1="96" y1="444.29" x2="74" y2="444.29" style="fill:none;stroke:#263238;stroke-linecap:round;stroke-miterlimit:10;stroke-width:0.75px"></line><line x1="653" y1="444.29" x2="108" y2="444.29" style="fill:none;stroke:#263238;stroke-linecap:round;stroke-miterlimit:10;stroke-width:0.75px"></line><line x1="695" y1="444.29" x2="660" y2="444.29" style="fill:none;stroke:#263238;stroke-linecap:round;stroke-miterlimit:10;stroke-width:0.75px"></line></g></svg>