<svg xmlns="http://www.w3.org/2000/svg" viewBox="0 0 500 500"><g id="freepik--background-complete--inject-74"><path d="M33.87,183.7c0-.14,101.55-.26,226.78-.26s226.8.12,226.8.26-101.52.26-226.8.26S33.87,183.85,33.87,183.7Z" style="fill:#e0e0e0"></path><path d="M207.71,64.87l-11.63,6,2.28,2.8,10-7.68Z" style="fill:#e0e0e0"></path><path d="M209.36,68.08c-.34.32-9.26,9.27-9.26,9.27l3,2L210.3,69Z" style="fill:#e0e0e0"></path><path d="M206.16,61.65c-.46.05-12.73.65-12.73.65l.88,4.35,12-3.71Z" style="fill:#e0e0e0"></path><path d="M206.49,58.23c-.46-.08-12.39-3-12.39-3l-.39,4.42,12.59-.16Z" style="fill:#e0e0e0"></path><path d="M208.59,55.65c-.36-.29-9.53-8.46-9.53-8.46l-2.42,3.72,11.18,5.78Z" style="fill:#e0e0e0"></path><path d="M211.18,54.36c-.17-.43-4.07-12.07-4.07-12.07l-4,2L210,54.89Z" style="fill:#e0e0e0"></path><path d="M215,54c.05-.46,2-12.59,2-12.59l-4.44,0,1.17,12.53Z" style="fill:#e0e0e0"></path><path d="M218.54,62.07a3.4,3.4,0,1,1-3.4-3.4A3.4,3.4,0,0,1,218.54,62.07Z" style="fill:#e0e0e0"></path><path d="M202.61,177.11c-.18,0,2.09-24.3,5.06-54.24s5.53-54.19,5.71-54.18-2.08,24.3-5.06,54.25S202.8,177.13,202.61,177.11Z" style="fill:#e0e0e0"></path><path d="M228.81,176.35c-.18,0-2.73-23.75-5.7-53.09s-5.22-53.14-5-53.16,2.73,23.75,5.7,53.09S229,176.33,228.81,176.35Z" style="fill:#e0e0e0"></path><path d="M221.85,108.54c0,.18-2.62.33-5.85.33s-5.86-.15-5.86-.33,2.62-.33,5.86-.33S221.85,108.36,221.85,108.54Z" style="fill:#e0e0e0"></path><path d="M224.37,135.16c0,.19-3.83.33-8.55.33s-8.55-.14-8.55-.33,3.83-.32,8.55-.32S224.37,135,224.37,135.16Z" style="fill:#e0e0e0"></path><path d="M227.47,162.31c0,.18-5.19.32-11.59.32s-11.59-.14-11.59-.32,5.19-.33,11.59-.33S227.47,162.12,227.47,162.31Z" style="fill:#e0e0e0"></path><path d="M215.46,64.15c.18,0,.54,25.11.8,56.09s.33,56.11.15,56.11-.54-25.11-.8-56.1S215.28,64.15,215.46,64.15Z" style="fill:#e0e0e0"></path><path d="M230.71,62.64l0-.26c0-.19,0-.44-.05-.76,0-.16,0-.35,0-.55s-.06-.43-.1-.67a11.19,11.19,0,0,0-.34-1.64,15.11,15.11,0,0,0-1.77-4.22,15.93,15.93,0,0,0-4-4.49,15.75,15.75,0,0,0-15-2.25,15,15,0,0,0-2.06.9,17.7,17.7,0,0,0-3.73,2.77A19.45,19.45,0,0,0,202,53.3a15.23,15.23,0,0,0-2.25,4.35,15.56,15.56,0,0,0,0,10A15.23,15.23,0,0,0,202,72a14.79,14.79,0,0,0,3.34,3.36,16.72,16.72,0,0,0,1.94,1.24,16.34,16.34,0,0,0,2.06.91,15.86,15.86,0,0,0,19-6.74,15.11,15.11,0,0,0,1.77-4.22,11.57,11.57,0,0,0,.34-1.65c0-.24.08-.46.1-.66l0-.56c0-.32,0-.57.05-.75l0-.26a1,1,0,0,1,0,.26l0,.76c0,.17,0,.35,0,.56s-.06.43-.09.67a12.73,12.73,0,0,1-.31,1.66,15.34,15.34,0,0,1-1.74,4.28,16.08,16.08,0,0,1-10.81,7.61,16.05,16.05,0,0,1-8.45-.68,15.68,15.68,0,0,1-2.11-.92,16.09,16.09,0,0,1-2-1.26A20.3,20.3,0,0,1,203.36,74a19,19,0,0,1-1.58-1.87,15.35,15.35,0,0,1-2.3-4.44,15.81,15.81,0,0,1,0-10.17,15.6,15.6,0,0,1,2.3-4.44,15.09,15.09,0,0,1,3.42-3.41,16.5,16.5,0,0,1,2-1.27,17.06,17.06,0,0,1,2.11-.92,16.15,16.15,0,0,1,8.45-.68,16.08,16.08,0,0,1,10.81,7.61,15.38,15.38,0,0,1,1.74,4.29,12.43,12.43,0,0,1,.31,1.66c0,.24.07.46.09.67l0,.56c0,.32,0,.57,0,.76A1,1,0,0,1,230.71,62.64Z" style="fill:#e0e0e0"></path><path d="M220.74,57.47c.51.07,12-3.35,12-3.35l-3.22-5.63-9.13,7.92Z" style="fill:#e0e0e0"></path><path d="M218.07,54.79c.34-.33,9.88-8.94,9.88-8.94l-4.51-3.46-6.31,12Z" style="fill:#e0e0e0"></path><path d="M222.11,61.8c.46,0,12.73-.65,12.73-.65L234,56.81l-12,3.7Z" style="fill:#e0e0e0"></path><path d="M221.54,66.15c.45.1,12.25,3.53,12.25,3.53l.58-4.4-12.58-.41Z" style="fill:#e0e0e0"></path><path d="M219.82,69c.36.29,9.53,8.46,9.53,8.46l2.42-3.72L220.59,68Z" style="fill:#e0e0e0"></path><path d="M217.13,69.59c.17.43,4.07,12.07,4.07,12.07l4-2-6.83-10.58Z" style="fill:#e0e0e0"></path><path d="M212.47,69.29c-.1.45-3.37,12.28-3.37,12.28l4.4.53.25-12.58Z" style="fill:#e0e0e0"></path><rect x="312.98" y="69.12" width="4.73" height="89.23" rx="2.14" style="fill:#e0e0e0"></rect><path d="M329.58,44.53h2.66A12.8,12.8,0,0,1,345,57.33v100a2.58,2.58,0,0,1-2.58,2.58H319.36a2.58,2.58,0,0,1-2.58-2.58v-100A12.8,12.8,0,0,1,329.58,44.53Z" style="fill:#ebebeb"></path><rect x="291.5" y="158.35" width="54.54" height="2.08" style="fill:#e0e0e0"></rect><rect x="293.82" y="159.88" width="51.23" height="23.26" style="fill:#ebebeb"></rect><path d="M345.26,64c0,.07-6.36.12-14.21.12s-14.2,0-14.2-.12,6.36-.12,14.2-.12S345.26,64,345.26,64Z" style="fill:#e0e0e0"></path><path d="M345.26,69.66c0,.07-6.36.12-14.21.12s-14.2,0-14.2-.12,6.36-.12,14.2-.12S345.26,69.6,345.26,69.66Z" style="fill:#e0e0e0"></path><path d="M345.26,75.28c0,.07-6.36.12-14.21.12s-14.2-.05-14.2-.12,6.36-.12,14.2-.12S345.26,75.21,345.26,75.28Z" style="fill:#e0e0e0"></path><path d="M345.26,80.9c0,.06-6.36.12-14.21.12s-14.2-.06-14.2-.12,6.36-.12,14.2-.12S345.26,80.83,345.26,80.9Z" style="fill:#e0e0e0"></path><path d="M345.26,86.51c0,.07-6.36.12-14.21.12s-14.2,0-14.2-.12,6.36-.12,14.2-.12S345.26,86.45,345.26,86.51Z" style="fill:#e0e0e0"></path><path d="M345.26,92.13c0,.07-6.36.12-14.21.12s-14.2,0-14.2-.12,6.36-.12,14.2-.12S345.26,92.06,345.26,92.13Z" style="fill:#e0e0e0"></path><path d="M345.26,97.75c0,.06-6.36.12-14.21.12s-14.2-.06-14.2-.12,6.36-.12,14.2-.12S345.26,97.68,345.26,97.75Z" style="fill:#e0e0e0"></path><path d="M345.26,103.36c0,.07-6.36.12-14.21.12s-14.2,0-14.2-.12,6.36-.12,14.2-.12S345.26,103.3,345.26,103.36Z" style="fill:#e0e0e0"></path><path d="M345.26,109c0,.07-6.36.12-14.21.12s-14.2,0-14.2-.12,6.36-.12,14.2-.12S345.26,108.92,345.26,109Z" style="fill:#e0e0e0"></path><path d="M345.26,114.6c0,.06-6.36.12-14.21.12s-14.2-.06-14.2-.12,6.36-.12,14.2-.12S345.26,114.53,345.26,114.6Z" style="fill:#e0e0e0"></path><path d="M345.26,120.22c0,.06-6.36.12-14.21.12s-14.2-.06-14.2-.12,6.36-.12,14.2-.12S345.26,120.15,345.26,120.22Z" style="fill:#e0e0e0"></path><path d="M345.26,125.83c0,.07-6.36.12-14.21.12s-14.2,0-14.2-.12,6.36-.12,14.2-.12S345.26,125.77,345.26,125.83Z" style="fill:#e0e0e0"></path><path d="M345.26,131.45c0,.07-6.36.12-14.21.12s-14.2,0-14.2-.12,6.36-.12,14.2-.12S345.26,131.38,345.26,131.45Z" style="fill:#e0e0e0"></path><path d="M345.26,137.07c0,.06-6.36.12-14.21.12s-14.2-.06-14.2-.12,6.36-.12,14.2-.12S345.26,137,345.26,137.07Z" style="fill:#e0e0e0"></path><path d="M345.26,142.85c0,.07-6.36.12-14.21.12s-14.2-.05-14.2-.12,6.36-.12,14.2-.12S345.26,142.78,345.26,142.85Z" style="fill:#e0e0e0"></path><path d="M345.26,148.63c0,.07-6.36.12-14.21.12s-14.2-.05-14.2-.12,6.36-.11,14.2-.11S345.26,148.57,345.26,148.63Z" style="fill:#e0e0e0"></path><path d="M345.26,154.42c0,.06-6.36.12-14.21.12s-14.2-.06-14.2-.12,6.36-.12,14.2-.12S345.26,154.35,345.26,154.42Z" style="fill:#e0e0e0"></path><path d="M291.5,160.43s0-.15,0-.49,0-.88,0-1.59v0h0c6.18,0,28.27-.09,54.54-.09h.12v2.32H346l-38.69,0-11.62,0-3.14,0h0l3.17,0,11.65,0,38.6,0-.12.11v-2.08l.12.12h0c-26.27,0-48.36,0-54.54-.09l0,0c0,.71,0,1.22,0,1.57S291.5,160.43,291.5,160.43Z" style="fill:#e0e0e0"></path><polygon points="437.11 130.78 481.95 130.78 486.71 152.54 437.11 152.54 437.11 130.78" style="fill:#e0e0e0"></polygon><rect x="437.11" y="152.37" width="45.69" height="30.77" style="fill:#f5f5f5"></rect><polygon points="437.11 183.15 437.11 121.67 420.73 92.72 388.42 75.4 359.03 93.18 343.22 123.04 343.22 183.15 437.11 183.15" style="fill:#ebebeb"></polygon><path d="M437.32,141.66c0,.06-21.06.12-47,.12s-47-.06-47-.12,21.06-.12,47-.12S437.32,141.59,437.32,141.66Z" style="fill:#e0e0e0"></path><path d="M437.32,146.35c0,.07-21.06.12-47,.12s-47-.05-47-.12,21.06-.12,47-.12S437.32,146.28,437.32,146.35Z" style="fill:#e0e0e0"></path><path d="M437.32,151c0,.07-21.07.12-47.05.12s-47,0-47-.12,21.07-.12,47-.12S437.32,151,437.32,151Z" style="fill:#e0e0e0"></path><path d="M437.32,155.73c0,.07-21.07.12-47.05.12s-47,0-47-.12,21.07-.12,47-.12S437.32,155.67,437.32,155.73Z" style="fill:#e0e0e0"></path><path d="M437.32,160.42c0,.07-21.06.12-47,.12s-47,0-47-.12,21.06-.12,47-.12S437.32,160.36,437.32,160.42Z" style="fill:#e0e0e0"></path><path d="M437.32,165.12c0,.06-21.06.12-47,.12s-47-.06-47-.12,21.06-.12,47-.12S437.32,165.05,437.32,165.12Z" style="fill:#e0e0e0"></path><path d="M437.32,169.81c0,.06-21.06.12-47,.12s-47-.06-47-.12,21.06-.12,47-.12S437.32,169.74,437.32,169.81Z" style="fill:#e0e0e0"></path><rect x="343.22" y="134.79" width="93.89" height="2.69" style="fill:#fff"></rect><rect x="384.83" y="155.89" width="11.04" height="27.46" style="fill:#e0e0e0"></rect><rect x="343.22" y="174.24" width="30.68" height="2.44" style="fill:#fff"></rect><path d="M345,183a44.73,44.73,0,0,1,0-6.27,41,41,0,0,1,0,6.27Z" style="fill:#fff"></path><path d="M346.62,183a41,41,0,0,1,0-6.27,41,41,0,0,1,0,6.27Z" style="fill:#fff"></path><path d="M348.27,183a41,41,0,0,1,0-6.27,44.73,44.73,0,0,1,0,6.27Z" style="fill:#fff"></path><path d="M349.91,183a41,41,0,0,1,0-6.27,41,41,0,0,1,0,6.27Z" style="fill:#fff"></path><path d="M351.56,183a41,41,0,0,1,0-6.27,41,41,0,0,1,0,6.27Z" style="fill:#fff"></path><path d="M353.2,183a41,41,0,0,1,0-6.27,41,41,0,0,1,0,6.27Z" style="fill:#fff"></path><path d="M354.85,183a41,41,0,0,1,0-6.27,41,41,0,0,1,0,6.27Z" style="fill:#fff"></path><path d="M356.49,183a44.73,44.73,0,0,1,0-6.27,41,41,0,0,1,0,6.27Z" style="fill:#fff"></path><path d="M358.14,183a41,41,0,0,1,0-6.27,41,41,0,0,1,0,6.27Z" style="fill:#fff"></path><path d="M359.79,183a41,41,0,0,1,0-6.27,44.73,44.73,0,0,1,0,6.27Z" style="fill:#fff"></path><path d="M361.43,183a41,41,0,0,1,0-6.27,41,41,0,0,1,0,6.27Z" style="fill:#fff"></path><path d="M363.08,183a41,41,0,0,1,0-6.27,41,41,0,0,1,0,6.27Z" style="fill:#fff"></path><path d="M364.72,183a44.73,44.73,0,0,1,0-6.27,41,41,0,0,1,0,6.27Z" style="fill:#fff"></path><path d="M366.37,183a41,41,0,0,1,0-6.27,41,41,0,0,1,0,6.27Z" style="fill:#fff"></path><path d="M368,183a41,41,0,0,1,0-6.27,44.73,44.73,0,0,1,0,6.27Z" style="fill:#fff"></path><path d="M369.87,183a41,41,0,0,1,0-6.27,41,41,0,0,1,0,6.27Z" style="fill:#fff"></path><path d="M371.72,183a44.73,44.73,0,0,1,0-6.27,41,41,0,0,1,0,6.27Z" style="fill:#fff"></path><rect x="407.62" y="174.24" width="29.7" height="2.44" style="fill:#fff"></rect><path d="M414.56,183.41a46.26,46.26,0,0,1,0-6.66,46.26,46.26,0,0,1,0,6.66Z" style="fill:#fff"></path><path d="M412.77,183.37a46.26,46.26,0,0,1,0-6.66,46.26,46.26,0,0,1,0,6.66Z" style="fill:#fff"></path><path d="M411,183.33a46.13,46.13,0,0,1,0-6.65,46.13,46.13,0,0,1,0,6.65Z" style="fill:#fff"></path><path d="M409.06,183.33a46.13,46.13,0,0,1,0-6.65,46.13,46.13,0,0,1,0,6.65Z" style="fill:#fff"></path><path d="M416.21,183.41a46.26,46.26,0,0,1,0-6.66,50.46,50.46,0,0,1,0,6.66Z" style="fill:#fff"></path><path d="M417.85,183.41a46.26,46.26,0,0,1,0-6.66,46.26,46.26,0,0,1,0,6.66Z" style="fill:#fff"></path><path d="M419.5,183.41a46.26,46.26,0,0,1,0-6.66,46.26,46.26,0,0,1,0,6.66Z" style="fill:#fff"></path><path d="M421.14,183.41a50.46,50.46,0,0,1,0-6.66,46.26,46.26,0,0,1,0,6.66Z" style="fill:#fff"></path><path d="M422.79,183.41a46.26,46.26,0,0,1,0-6.66,46.26,46.26,0,0,1,0,6.66Z" style="fill:#fff"></path><path d="M424.44,183.41a46.26,46.26,0,0,1,0-6.66,50.46,50.46,0,0,1,0,6.66Z" style="fill:#fff"></path><path d="M426.08,183.41a46.26,46.26,0,0,1,0-6.66,46.26,46.26,0,0,1,0,6.66Z" style="fill:#fff"></path><path d="M427.73,183.41a46.26,46.26,0,0,1,0-6.66,46.26,46.26,0,0,1,0,6.66Z" style="fill:#fff"></path><path d="M429.37,183.41a46.26,46.26,0,0,1,0-6.66,46.26,46.26,0,0,1,0,6.66Z" style="fill:#fff"></path><path d="M431,183.41a46.26,46.26,0,0,1,0-6.66,46.26,46.26,0,0,1,0,6.66Z" style="fill:#fff"></path><path d="M432.66,183.41a50.46,50.46,0,0,1,0-6.66,46.26,46.26,0,0,1,0,6.66Z" style="fill:#fff"></path><path d="M434.31,183.41a46.26,46.26,0,0,1,0-6.66,46.26,46.26,0,0,1,0,6.66Z" style="fill:#fff"></path><path d="M436,183.41a46.26,46.26,0,0,1,0-6.66,50.46,50.46,0,0,1,0,6.66Z" style="fill:#fff"></path><rect x="350.24" y="159.66" width="9.23" height="6.63" style="fill:#fff"></rect><rect x="351.56" y="160.99" width="6.58" height="3.98" style="fill:#ebebeb"></rect><rect x="423.12" y="159.66" width="9.23" height="6.63" style="fill:#fff"></rect><rect x="424.45" y="160.99" width="6.58" height="3.98" style="fill:#ebebeb"></rect><rect x="373.91" y="155.25" width="16.73" height="28.13" style="fill:#fff"></rect><path d="M375.63,157.18c0,.15.19,22.85.19,22.85l5.59-11.42Z" style="fill:#ebebeb"></path><path d="M389.2,157.18c0,.15-.19,22.85-.19,22.85l-5.59-11.42Z" style="fill:#ebebeb"></path><polygon points="376.87 155.25 382.5 166.67 388.32 155.25 376.87 155.25" style="fill:#ebebeb"></polygon><polygon points="388 182 382.37 170.99 376.87 182 388 182" style="fill:#ebebeb"></polygon><path d="M373.91,183.7c-.07,0-.12-6.32-.12-14.12s0-14.13.12-14.13.12,6.32.12,14.13S374,183.7,373.91,183.7Z" style="fill:#e0e0e0"></path><path d="M437.32,130.74c0,.07-21.06.12-47,.12s-47-.05-47-.12,21.06-.12,47-.12S437.32,130.67,437.32,130.74Z" style="fill:#e0e0e0"></path><path d="M437.32,125.54c0,.06-21.06.12-47,.12s-47-.06-47-.12,21.06-.12,47-.12S437.32,125.47,437.32,125.54Z" style="fill:#e0e0e0"></path><path d="M437.32,120.33c0,.07-21.06.12-47,.12s-47,0-47-.12,21.06-.12,47-.12S437.32,120.27,437.32,120.33Z" style="fill:#e0e0e0"></path><path d="M435.18,115.13c0,.06-20.19.12-45.09.12s-45.1-.06-45.1-.12,20.19-.12,45.1-.12S435.18,115.06,435.18,115.13Z" style="fill:#e0e0e0"></path><path d="M431,109.92c0,.07-18.15.12-40.54.12S350,110,350,109.92s18.15-.12,40.54-.12S431,109.86,431,109.92Z" style="fill:#e0e0e0"></path><path d="M429.36,104.72c0,.07-17.77.12-39.7.12s-39.71,0-39.71-.12,17.78-.12,39.71-.12S429.36,104.65,429.36,104.72Z" style="fill:#e0e0e0"></path><path d="M424.8,99.52c0,.06-16,.12-35.71.12s-35.72-.06-35.72-.12,16-.12,35.72-.12S424.8,99.45,424.8,99.52Z" style="fill:#e0e0e0"></path><path d="M423.53,94.31c0,.07-15.25.12-34,.12s-34-.05-34-.12,15.24-.12,34-.12S423.53,94.24,423.53,94.31Z" style="fill:#e0e0e0"></path><path d="M415.36,89.11c0,.06-11.51.12-25.72.12s-25.72-.06-25.72-.12S375.44,89,389.64,89,415.36,89,415.36,89.11Z" style="fill:#e0e0e0"></path><path d="M405.31,83.9l-.35,0-1,0-3.68,0-12.15,0L376,84l-3.68,0-1,0-.35,0a2.37,2.37,0,0,1,.35,0l1,0,3.68,0,12.16,0,12.15,0,3.68,0,1,0A2.37,2.37,0,0,1,405.31,83.9Z" style="fill:#e0e0e0"></path><path d="M397.27,78.7c0,.06-3.68.12-8.21.12s-8.21-.06-8.21-.12,3.67-.12,8.21-.12S397.27,78.63,397.27,78.7Z" style="fill:#e0e0e0"></path><polygon points="440.26 122.49 421.83 91.46 388.05 73.09 356.02 92.51 340.08 123.11 342.81 124.22 342.81 123.6 358.61 93.85 388 76.14 420.31 93.4 436.69 122.24 436.69 122.86 440.26 122.49" style="fill:#ebebeb"></polygon><path d="M440.26,122.49l-3.57.39h0v0c0-.19,0-.4,0-.62h0L420.25,93.44l0,0L388,76.23h.1L358.67,94l0,0-15.8,29.75v.74l-.16-.07-2.73-1.1-.12,0,.06-.12.21-.4c5.43-10.42,10.71-20.54,15.74-30.21l0,0,0,0L388,73l.05,0,.05,0,33.77,18.39h0v0C433.41,110.9,440,122,440.26,122.49l-18.49-31,0,0L388,73.18h.1l-32,19.43.05,0-15.74,30.21-.21.4-.06-.17,2.73,1.11-.16.11v-.67L358.51,93.8l0,0,0,0L388,76.05l.05,0,.05,0,32.3,17.28h0v0l16.34,28.87h0v.62l0,0Z" style="fill:#e0e0e0"></path><rect x="381.79" y="120.2" width="15.15" height="2.63" style="fill:#fafafa"></rect><rect x="383.12" y="97.48" width="12.52" height="24.04" style="fill:#fafafa"></rect><rect x="384.34" y="98.65" width="10.07" height="21.57" style="fill:#ebebeb"></rect><path d="M394.42,120.14h-.69l-2,0-7.42,0h-.09v-.09c0-5.57,0-13.09,0-21.34-.11.11.14-.15.12-.12h10.23v.11c0,6.23,0,11.57-.06,15.37,0,1.88,0,3.37,0,4.41,0,.5,0,.89,0,1.17v.39s0,0,0-.11v-.31c0-.29,0-.68,0-1.19,0-1,0-2.55,0-4.43,0-3.79,0-9.1-.06-15.3l.12.11H384.3s.22-.23.11-.12c0,8.25,0,15.77,0,21.34l-.08-.09,7.37,0,2,0h.72Z" style="fill:#e0e0e0"></path><rect x="383.12" y="108.77" width="12.52" height="1.17" style="fill:#fafafa"></rect><path d="M395.64,109.94a1.92,1.92,0,0,1,0-.31c0-.22,0-.51,0-.86l.05,0c-2.1,0-6.92.07-12.52.07h0l.12-.12h0v1.15l-.12-.12c3.49,0,6.59,0,8.85.05l2.67,0h.73l.27,0a1.1,1.1,0,0,1-.24,0h-.7l-2.65,0c-2.24,0-5.4,0-8.93,0H383v-1.27h0l.12-.12h0c5.6,0,10.42,0,12.52.08h.05v0c0,.37,0,.66,0,.88S395.64,110,395.64,109.94Z" style="fill:#e0e0e0"></path><path d="M396.53,120.2c0,.07-3.32.12-7.41.12s-7.4,0-7.4-.12,3.32-.12,7.4-.12S396.53,120.13,396.53,120.2Z" style="fill:#e0e0e0"></path><rect x="390.88" y="155.27" width="16.73" height="28.13" transform="translate(798.5 338.67) rotate(180)" style="fill:#fff"></rect><path d="M405.89,157.2c0,.15-.19,22.85-.19,22.85l-5.58-11.42Z" style="fill:#ebebeb"></path><path d="M392.33,157.2c0,.15.19,22.85.19,22.85l5.58-11.42Z" style="fill:#ebebeb"></path><polygon points="404.66 155.27 399.03 166.69 393.2 155.27 404.66 155.27" style="fill:#ebebeb"></polygon><polygon points="393.52 182.02 399.15 171.01 404.66 182.02 393.52 182.02" style="fill:#ebebeb"></polygon><path d="M407.66,183.35c-.07,0-.12-6.3-.12-14.06s0-14.06.12-14.06.11,6.29.11,14.06S407.72,183.35,407.66,183.35Z" style="fill:#e0e0e0"></path><path d="M343.22,183c-.06,0-.11-13.45-.11-30s.05-30,.11-30,.12,13.45.12,30S343.29,183,343.22,183Z" style="fill:#e0e0e0"></path><path d="M437.27,183c-.07,0-.12-13.49-.12-30.13s.05-30.12.12-30.12.11,13.48.11,30.12S437.33,183,437.27,183Z" style="fill:#e0e0e0"></path><path d="M482.61,155.88c0,.06-10.23.12-22.86.12s-22.87-.06-22.87-.12,10.24-.12,22.87-.12S482.61,155.81,482.61,155.88Z" style="fill:#e0e0e0"></path><path d="M482.61,160.42c0,.07-10.23.12-22.86.12s-22.87,0-22.87-.12,10.24-.12,22.87-.12S482.61,160.36,482.61,160.42Z" style="fill:#e0e0e0"></path><path d="M482.61,165.12c0,.06-10.12.12-22.6.12s-22.61-.06-22.61-.12S447.52,165,460,165,482.61,165.05,482.61,165.12Z" style="fill:#e0e0e0"></path><path d="M482.61,169.81c0,.06-10.14.12-22.64.12s-22.65-.06-22.65-.12,10.14-.12,22.65-.12S482.61,169.74,482.61,169.81Z" style="fill:#e0e0e0"></path><path d="M482.61,174.07c0,.06-10.15.12-22.67.12s-22.67-.06-22.67-.12,10.15-.12,22.67-.12S482.61,174,482.61,174.07Z" style="fill:#e0e0e0"></path><path d="M482.61,178.62c0,.06-10.14.12-22.64.12s-22.65-.06-22.65-.12,10.14-.12,22.65-.12S482.61,178.55,482.61,178.62Z" style="fill:#e0e0e0"></path><rect x="366.04" y="152.54" width="49.72" height="2.89" style="fill:#fff"></rect><path d="M415.86,155.43c0,.07-11.14.12-24.87.12s-24.87-.05-24.87-.12,11.13-.12,24.87-.12S415.86,155.37,415.86,155.43Z" style="fill:#ebebeb"></path><path d="M65.62,155.42a4.26,4.26,0,0,1,0,.9c0,.74,0,1.23.09,2.17s.12,1.6.17,2.16a4.33,4.33,0,0,1,0,.9,5.39,5.39,0,0,1-.18-.89c-.08-.55-.17-1.31-.22-2.16s0-1.62,0-2.18A4.11,4.11,0,0,1,65.62,155.42Z" style="fill:#e0e0e0"></path><path d="M52.14,159.3H65.33a11,11,0,0,1,11,11v2.45a11,11,0,0,1-11,11H52.14a.92.92,0,0,1-.92-.92V160.22A.92.92,0,0,1,52.14,159.3Z" style="fill:#ffd39d"></path><path d="M52.14,159.3H65.33a11,11,0,0,1,11,11v2.45a11,11,0,0,1-11,11H52.14a.92.92,0,0,1-.92-.92V160.22A.92.92,0,0,1,52.14,159.3Z" style="fill:#e0e0e0"></path><circle cx="51.52" cy="171.51" r="12.21" transform="translate(-62.7 33.58) rotate(-22.91)" style="fill:#ebebeb"></circle><path d="M61.34,171.51s0-.06,0-.16,0-.27,0-.47,0-.21,0-.34,0-.26-.06-.41a8.33,8.33,0,0,0-.21-1,9.24,9.24,0,0,0-1.09-2.6,9.74,9.74,0,0,0-11.7-4.15,10.15,10.15,0,0,0-1.27.55l-.61.37a5.45,5.45,0,0,0-.58.4,9.86,9.86,0,0,0-1.11.94,11.58,11.58,0,0,0-1,1.13,9.23,9.23,0,0,0-1.39,2.68,10.12,10.12,0,0,0-.5,3.07,10.23,10.23,0,0,0,.5,3.07,9.36,9.36,0,0,0,1.39,2.68,11.36,11.36,0,0,0,1,1.13,12.52,12.52,0,0,0,1.11.94,5.45,5.45,0,0,0,.58.4c.21.12.4.25.61.36a8.92,8.92,0,0,0,1.27.56,9.71,9.71,0,0,0,9.22-1.39,9.72,9.72,0,0,0,2.48-2.76A9.36,9.36,0,0,0,61,173.9a8.74,8.74,0,0,0,.21-1c0-.15,0-.29.06-.41s0-.24,0-.35,0-.35,0-.46,0-.16,0-.16a.63.63,0,0,1,0,.16c0,.11,0,.27,0,.47v.34c0,.13,0,.26-.06.41a6.4,6.4,0,0,1-.19,1,9.86,9.86,0,0,1-7.72,7.31,8.54,8.54,0,0,1-1.25.15l-.64,0-.66,0a4.93,4.93,0,0,1-.66-.07c-.22,0-.45-.06-.67-.11a10.92,10.92,0,0,1-1.32-.38,9.75,9.75,0,0,1-1.29-.57c-.21-.11-.41-.24-.62-.37a4.56,4.56,0,0,1-.6-.41,11,11,0,0,1-1.12-1,10.39,10.39,0,0,1-2.39-3.88,10.2,10.2,0,0,1-.51-3.12,10.57,10.57,0,0,1,.51-3.13,9.58,9.58,0,0,1,1.42-2.73,11.89,11.89,0,0,1,1-1.14,11.16,11.16,0,0,1,1.12-1c.2-.14.39-.29.6-.41s.41-.25.62-.36a9.75,9.75,0,0,1,1.29-.57,9.36,9.36,0,0,1,1.32-.38c.22-.05.45-.07.67-.11a3.7,3.7,0,0,1,.66-.07l.65,0c.22,0,.44,0,.65,0a10.16,10.16,0,0,1,1.25.15A9.88,9.88,0,0,1,60,166.47a9.69,9.69,0,0,1,1.07,2.63,6.83,6.83,0,0,1,.19,1q0,.23.06.42v.34c0,.2,0,.36,0,.47A.67.67,0,0,1,61.34,171.51Z" style="fill:#e0e0e0"></path><path d="M58.91,171.69a.55.55,0,0,1,0-.12l0-.35,0-.26c0-.09,0-.19,0-.3a7,7,0,0,0-.16-.76,7,7,0,0,0-.82-2A7.44,7.44,0,0,0,56,165.87a7.33,7.33,0,0,0-6.92-1,7.36,7.36,0,0,0-1,.42,8.38,8.38,0,0,0-.89.57,8,8,0,0,0-.83.71,8.49,8.49,0,0,0-.72.85,7.1,7.1,0,0,0-1,2,7.33,7.33,0,0,0,0,4.6,7.29,7.29,0,0,0,1,2,9.65,9.65,0,0,0,.72.84,8,8,0,0,0,.83.71,8.38,8.38,0,0,0,.89.57,6.22,6.22,0,0,0,1,.42,7.35,7.35,0,0,0,8.79-3.11,7.11,7.11,0,0,0,.82-1.95,7.48,7.48,0,0,0,.16-.76c0-.12,0-.22,0-.31l0-.26,0-.35a.55.55,0,0,1,0-.12s0,0,0,.12,0,.21,0,.35a2.17,2.17,0,0,0,0,.26c0,.1,0,.2,0,.31a5.06,5.06,0,0,1-.14.77A7.39,7.39,0,0,1,56,177.61,7.32,7.32,0,0,1,52.9,179a7.49,7.49,0,0,1-3.92-.31,7.67,7.67,0,0,1-1-.43,6.41,6.41,0,0,1-.91-.59,7.11,7.11,0,0,1-.85-.71,7.72,7.72,0,0,1-.74-.87,7.47,7.47,0,0,1-1.07-2.06,7.52,7.52,0,0,1,0-4.72,7.61,7.61,0,0,1,1.07-2.06,8.8,8.8,0,0,1,.74-.86,7.2,7.2,0,0,1,.85-.72,7.43,7.43,0,0,1,.91-.59,7.67,7.67,0,0,1,1-.43,7.49,7.49,0,0,1,3.92-.31,7.48,7.48,0,0,1,5,3.53,7.24,7.24,0,0,1,.81,2,5.06,5.06,0,0,1,.14.77c0,.11,0,.21,0,.31a2.17,2.17,0,0,0,0,.26,3.44,3.44,0,0,0,0,.35C58.92,171.65,58.92,171.69,58.91,171.69Z" style="fill:#e0e0e0"></path><path d="M56.19,171.69a9.28,9.28,0,0,0-.18-1.13,4.69,4.69,0,0,0-1.7-2.53,4.53,4.53,0,0,0-1.94-.85,4.58,4.58,0,0,0-2.41.21,4.34,4.34,0,0,0-1.16.62,4.42,4.42,0,0,0-1,1,4.57,4.57,0,0,0,0,5.42,4.21,4.21,0,0,0,1,1,4.55,4.55,0,0,0,3.57.83,4.53,4.53,0,0,0,1.94-.85,4.69,4.69,0,0,0,1.7-2.53,9.28,9.28,0,0,0,.18-1.13,1.13,1.13,0,0,1,0,.3,2.43,2.43,0,0,1,0,.36,3.7,3.7,0,0,1-.09.49,4.65,4.65,0,0,1-1.69,2.61,4.79,4.79,0,0,1-2,.9,4.67,4.67,0,0,1-2.49-.2,4.27,4.27,0,0,1-1.21-.64,4.56,4.56,0,0,1-1-1,4.71,4.71,0,0,1,0-5.62,4.56,4.56,0,0,1,1-1,4.8,4.8,0,0,1,3.7-.84,4.92,4.92,0,0,1,2,.9,4.65,4.65,0,0,1,1.69,2.61,3.7,3.7,0,0,1,.09.49,2.43,2.43,0,0,1,0,.36A1.13,1.13,0,0,1,56.19,171.69Z" style="fill:#e0e0e0"></path><path d="M69,167s-.27-.65-.71-1.4-.89-1.28-.85-1.31a3.49,3.49,0,0,1,1,1.22A3.59,3.59,0,0,1,69,167Z" style="fill:#f5f5f5"></path><path d="M70.87,168.41c-.05,0-.32-.94-.88-2s-1.19-1.84-1.14-1.87a2.15,2.15,0,0,1,.44.47,7.75,7.75,0,0,1,.86,1.32,8,8,0,0,1,.59,1.45A2.19,2.19,0,0,1,70.87,168.41Z" style="fill:#f5f5f5"></path><path d="M70.64,165s-.27-.33-.6-.73a5.23,5.23,0,0,1-.58-.74s.39.21.72.62A1.83,1.83,0,0,1,70.64,165Z" style="fill:#f5f5f5"></path><path d="M68.5,177a11,11,0,0,1,.51-1.1,11.59,11.59,0,0,1,.45-1.11,3.66,3.66,0,0,1-1,2.21Z" style="fill:#f5f5f5"></path><path d="M69.24,177s.33-.42.61-1,.37-1.09.42-1.09a1.86,1.86,0,0,1-.26,1.17A2,2,0,0,1,69.24,177Z" style="fill:#f5f5f5"></path><path d="M58,157.43a10.83,10.83,0,0,1-.36,2,11.3,11.3,0,0,1-.54,1.94,11.44,11.44,0,0,1,.37-2A13.23,13.23,0,0,1,58,157.43Z" style="fill:#ebebeb"></path><path d="M55.6,157.72a6.6,6.6,0,0,1,.17,1.85,6.67,6.67,0,0,1-.17,1.85,17.14,17.14,0,0,1,0-1.85A17.05,17.05,0,0,1,55.6,157.72Z" style="fill:#ebebeb"></path><path d="M67.41,176.29c.56-.59.2.32-.92-.75a4.26,4.26,0,0,1-.79-.88,4.09,4.09,0,0,1,.92.75A4.26,4.26,0,0,1,67.41,176.29Z" style="fill:#ebebeb"></path><path d="M68.06,174.91a3.29,3.29,0,0,1-1.09-.25,3.39,3.39,0,0,1-1-.42s.48.17,1.09.25C69.8,174.88,68.29,174.49,68.06,174.91Z" style="fill:#ebebeb"></path><path d="M78.22,168.3a7.27,7.27,0,0,1-1.35.69,7,7,0,0,1-1.43.52,6.62,6.62,0,0,1,1.35-.69C78.61,168,78.4,168.71,78.22,168.3Z" style="fill:#e0e0e0"></path><path d="M78.87,171.38s.42,0-1.78-.16c-1-.08-1.78-.08-1.78-.13A6,6,0,0,1,77.1,171,5.7,5.7,0,0,1,78.87,171.38Z" style="fill:#e0e0e0"></path><path d="M79.71,134.79a7,7,0,0,1,.05.9c0,.74,0,1.23.08,2.17s.12,1.6.17,2.16a6.37,6.37,0,0,1,.06.9,3.65,3.65,0,0,1-.18-.89c-.09-.55-.18-1.31-.23-2.16s0-1.62,0-2.18A3.7,3.7,0,0,1,79.71,134.79Z" style="fill:#e0e0e0"></path><path d="M66.22,138.67H79.41a11,11,0,0,1,11,11v2.45a11,11,0,0,1-11,11H66.22a.92.92,0,0,1-.92-.92V139.59A.92.92,0,0,1,66.22,138.67Z" style="fill:#ffd39d"></path><path d="M66.22,138.67H79.41a11,11,0,0,1,11,11v2.45a11,11,0,0,1-11,11H66.22a.92.92,0,0,1-.92-.92V139.59A.92.92,0,0,1,66.22,138.67Z" style="fill:#e0e0e0"></path><circle cx="65.61" cy="150.88" r="12.21" style="fill:#ebebeb"></circle><path d="M75.42,150.88s0-.06,0-.16,0-.27,0-.47l0-.34c0-.12,0-.26-.06-.41a6.77,6.77,0,0,0-.21-1,9.24,9.24,0,0,0-1.09-2.6,9.73,9.73,0,0,0-11.7-4.15,10.15,10.15,0,0,0-1.27.55l-.6.37a4.7,4.7,0,0,0-.59.4,9.76,9.76,0,0,0-1.1.94,10.41,10.41,0,0,0-1,1.13,9.35,9.35,0,0,0-1.39,2.68,10.12,10.12,0,0,0-.5,3.07,10.23,10.23,0,0,0,.5,3.07,9.61,9.61,0,0,0,1.39,2.68,12.9,12.9,0,0,0,.95,1.13,14.14,14.14,0,0,0,1.11.94,6.1,6.1,0,0,0,.59.4l.6.36a8.92,8.92,0,0,0,1.27.56,9.87,9.87,0,0,0,5.12.43A9.81,9.81,0,0,0,74,155.87a9.36,9.36,0,0,0,1.09-2.6,6.87,6.87,0,0,0,.21-1c0-.14,0-.28.06-.4s0-.24,0-.35,0-.35,0-.46,0-.16,0-.16a.92.92,0,0,1,0,.16l0,.46v.35c0,.13,0,.26-.06.41a6.4,6.4,0,0,1-.19,1,9.14,9.14,0,0,1-1.07,2.64,9.89,9.89,0,0,1-2.49,2.81,9.74,9.74,0,0,1-4.16,1.86,8.54,8.54,0,0,1-1.25.15l-.64,0-.66,0a4.93,4.93,0,0,1-.66-.07c-.22,0-.44-.06-.66-.11a10.42,10.42,0,0,1-1.32-.38,10.68,10.68,0,0,1-1.3-.57c-.21-.11-.41-.24-.61-.37a3.53,3.53,0,0,1-.6-.41,10.15,10.15,0,0,1-1.13-1,12,12,0,0,1-1-1.15A9.58,9.58,0,0,1,56.21,154a9.83,9.83,0,0,1,0-6.25A9.84,9.84,0,0,1,57.63,145a11.89,11.89,0,0,1,1-1.14,10.24,10.24,0,0,1,1.13-1,5.27,5.27,0,0,1,.6-.41c.2-.12.4-.25.61-.36a9.32,9.32,0,0,1,1.3-.57,9,9,0,0,1,1.32-.38c.22,0,.44-.08.66-.11a3.7,3.7,0,0,1,.66-.07l.66,0c.21,0,.43,0,.64,0a10.16,10.16,0,0,1,1.25.15,9.82,9.82,0,0,1,6.65,4.68,9.09,9.09,0,0,1,1.07,2.63,6.83,6.83,0,0,1,.19,1c0,.15,0,.29.06.42v.34c0,.2,0,.36,0,.47A1.08,1.08,0,0,1,75.42,150.88Z" style="fill:#e0e0e0"></path><path d="M73,151.06s0,0,0-.12,0-.2,0-.35v-.26c0-.09,0-.19,0-.3a5.31,5.31,0,0,0-.16-.77,7.11,7.11,0,0,0-.82-1.95,7.33,7.33,0,0,0-8.79-3.11,6.69,6.69,0,0,0-.95.42,8.51,8.51,0,0,0-.9.57,9.17,9.17,0,0,0-.83.71,9.55,9.55,0,0,0-.71.84,6.79,6.79,0,0,0-1,2,7.7,7.7,0,0,0-.38,2.3,8,8,0,0,0,.37,2.3,7.06,7.06,0,0,0,1,2,9.55,9.55,0,0,0,.71.84,8,8,0,0,0,.83.71,8.51,8.51,0,0,0,.9.57,6.69,6.69,0,0,0,.95.42,7.35,7.35,0,0,0,8.79-3.11,7.11,7.11,0,0,0,.82-1.95,5.48,5.48,0,0,0,.16-.76c0-.12,0-.22,0-.31v-.26c0-.15,0-.26,0-.35s0-.12,0-.12v.12c0,.09,0,.21,0,.35v.26c0,.1,0,.2,0,.31a5.06,5.06,0,0,1-.14.77,7.18,7.18,0,0,1-.8,2A7.48,7.48,0,0,1,70.12,157,7.32,7.32,0,0,1,67,158.39a7.46,7.46,0,0,1-4.9-.74,6.51,6.51,0,0,1-.92-.59,7.05,7.05,0,0,1-.85-.72,7.53,7.53,0,0,1-.73-.86,7.09,7.09,0,0,1-1.07-2.06,7.34,7.34,0,0,1,0-4.72,7,7,0,0,1,1.07-2.06,7.53,7.53,0,0,1,.73-.86,7.05,7.05,0,0,1,.85-.72,6.51,6.51,0,0,1,.92-.59,7.45,7.45,0,0,1,4.89-.74,7.36,7.36,0,0,1,3.14,1.41A7.29,7.29,0,0,1,72,147.26a6.94,6.94,0,0,1,.81,2,5.06,5.06,0,0,1,.14.77c0,.11,0,.21,0,.31v.26c0,.15,0,.26,0,.35Z" style="fill:#e0e0e0"></path><path d="M70.27,151.06a6,6,0,0,0-.18-1.13,4.63,4.63,0,0,0-1.7-2.53,4.56,4.56,0,0,0-4.34-.64,4.2,4.2,0,0,0-1.16.62,4.25,4.25,0,0,0-1,1,4.57,4.57,0,0,0,0,5.42,4.06,4.06,0,0,0,1,1,4.52,4.52,0,0,0,1.16.63,4.66,4.66,0,0,0,2.41.2,4.54,4.54,0,0,0,1.93-.85,4.63,4.63,0,0,0,1.7-2.53,6,6,0,0,0,.18-1.13,1.36,1.36,0,0,1,0,.3,2.6,2.6,0,0,1,0,.36,3.7,3.7,0,0,1-.09.49,4.65,4.65,0,0,1-1.69,2.61,4.73,4.73,0,0,1-2,.9,4.67,4.67,0,0,1-2.49-.2,4.22,4.22,0,0,1-1.2-.64,4.61,4.61,0,0,1-1-1,4.71,4.71,0,0,1,0-5.62,4.61,4.61,0,0,1,1-1,4.49,4.49,0,0,1,1.2-.64,4.88,4.88,0,0,1,2.49-.2,4.73,4.73,0,0,1,2,.9,4.65,4.65,0,0,1,1.69,2.61,3.7,3.7,0,0,1,.09.49,2.6,2.6,0,0,1,0,.36A1.36,1.36,0,0,1,70.27,151.06Z" style="fill:#e0e0e0"></path><path d="M83,146.38c-.05,0-.28-.65-.71-1.4s-.9-1.28-.86-1.31a3.49,3.49,0,0,1,1,1.22A3.7,3.7,0,0,1,83,146.38Z" style="fill:#f5f5f5"></path><path d="M85,147.78s-.32-.94-.88-2-1.18-1.84-1.14-1.87.2.16.45.47a8.45,8.45,0,0,1,.85,1.32,8,8,0,0,1,.59,1.45A1.57,1.57,0,0,1,85,147.78Z" style="fill:#f5f5f5"></path><path d="M84.72,144.32a5.34,5.34,0,0,1-.59-.73,5.83,5.83,0,0,1-.59-.74s.39.21.73.62A1.87,1.87,0,0,1,84.72,144.32Z" style="fill:#f5f5f5"></path><path d="M82.59,156.4a9.63,9.63,0,0,1,.5-1.1,8.3,8.3,0,0,1,.46-1.11,2.63,2.63,0,0,1-.3,1.18A2.82,2.82,0,0,1,82.59,156.4Z" style="fill:#f5f5f5"></path><path d="M83.32,156.4s.34-.42.62-1,.36-1.08.41-1.08a1.85,1.85,0,0,1-.25,1.16A1.93,1.93,0,0,1,83.32,156.4Z" style="fill:#f5f5f5"></path><path d="M72.1,136.8a11.44,11.44,0,0,1-.37,2,13.23,13.23,0,0,1-.53,1.94,10.83,10.83,0,0,1,.36-2A11.3,11.3,0,0,1,72.1,136.8Z" style="fill:#ebebeb"></path><path d="M69.69,137.09a6.85,6.85,0,0,1,.16,1.85,6.92,6.92,0,0,1-.16,1.85s0-.83,0-1.85S69.64,137.09,69.69,137.09Z" style="fill:#ebebeb"></path><path d="M81.49,155.66c.56-.59.21.32-.92-.75a3.91,3.91,0,0,1-.79-.89,4.17,4.17,0,0,1,.92.76A4,4,0,0,1,81.49,155.66Z" style="fill:#ebebeb"></path><path d="M82.14,154.28a6.9,6.9,0,0,1-2.12-.67s.48.17,1.09.25C83.89,154.25,82.37,153.86,82.14,154.28Z" style="fill:#ebebeb"></path><path d="M92.3,147.67a6.92,6.92,0,0,1-1.35.68,6.8,6.8,0,0,1-1.42.53,5.81,5.81,0,0,1,1.35-.69C92.69,147.4,92.48,148.08,92.3,147.67Z" style="fill:#e0e0e0"></path><path d="M93,150.75c0-.05.43,0-1.78-.16-1-.08-1.78-.08-1.78-.13a5.72,5.72,0,0,1,1.8-.05A5.59,5.59,0,0,1,93,150.75Z" style="fill:#e0e0e0"></path><path d="M91.69,155.42a5.31,5.31,0,0,1,0,.9c0,.74,0,1.23.08,2.17s.12,1.6.17,2.16a4,4,0,0,1,.06.9,4.35,4.35,0,0,1-.18-.89c-.09-.55-.17-1.31-.22-2.16s-.06-1.62,0-2.18A4.45,4.45,0,0,1,91.69,155.42Z" style="fill:#e0e0e0"></path><path d="M78.2,159.3H91.39a11,11,0,0,1,11,11v2.45a11,11,0,0,1-11,11H78.2a.92.92,0,0,1-.92-.92V160.22a.92.92,0,0,1,.92-.92Z" style="fill:#ffd39d"></path><path d="M78.2,159.3H91.39a11,11,0,0,1,11,11v2.45a11,11,0,0,1-11,11H78.2a.92.92,0,0,1-.92-.92V160.22a.92.92,0,0,1,.92-.92Z" style="fill:#e0e0e0"></path><circle cx="77.59" cy="171.51" r="12.21" transform="translate(-60.13 43.17) rotate(-22.68)" style="fill:#ebebeb"></circle><path d="M87.41,171.51s0-.06,0-.16,0-.27,0-.47l0-.34c0-.12,0-.26-.07-.41a6.63,6.63,0,0,0-.2-1,9.55,9.55,0,0,0-1.09-2.6,9.76,9.76,0,0,0-2.49-2.76,9.7,9.7,0,0,0-9.22-1.39,11.6,11.6,0,0,0-1.27.55l-.6.37a4.7,4.7,0,0,0-.59.4,10.73,10.73,0,0,0-1.1.94,11.67,11.67,0,0,0-1,1.13,9.74,9.74,0,0,0-1.39,2.68,10.78,10.78,0,0,0-.5,3.07,10.9,10.9,0,0,0,.5,3.07,9.89,9.89,0,0,0,1.39,2.68,13,13,0,0,0,1,1.13,14,14,0,0,0,1.1.94,4.7,4.7,0,0,0,.59.4l.6.36a10,10,0,0,0,1.27.56,9.87,9.87,0,0,0,5.12.43,9.8,9.8,0,0,0,7.68-7.18,6.88,6.88,0,0,0,.2-1c0-.15,0-.29.07-.41l0-.35c0-.2,0-.35,0-.46s0-.16,0-.16v.16c0,.11,0,.27,0,.47v.34c0,.13,0,.26,0,.41a7.91,7.91,0,0,1-.2,1,9.14,9.14,0,0,1-1.07,2.64,9.86,9.86,0,0,1-6.64,4.67,8.71,8.71,0,0,1-1.25.15c-.22,0-.43,0-.65,0l-.65,0a4.93,4.93,0,0,1-.66-.07c-.23,0-.45-.06-.67-.11a10.42,10.42,0,0,1-1.32-.38,8.72,8.72,0,0,1-1.29-.57c-.21-.11-.41-.24-.62-.37a4,4,0,0,1-.6-.41,11.15,11.15,0,0,1-1.13-1,12,12,0,0,1-1-1.15,9.84,9.84,0,0,1-1.42-2.73,10.84,10.84,0,0,1-.51-3.12,10.58,10.58,0,0,1,.52-3.13,9.56,9.56,0,0,1,1.41-2.73,10.7,10.7,0,0,1,1-1.14,10.15,10.15,0,0,1,1.12-1,6.34,6.34,0,0,1,.6-.41c.21-.12.41-.25.62-.36a9.21,9.21,0,0,1,1.29-.57,9,9,0,0,1,1.32-.38c.22-.05.44-.07.66-.11a3.81,3.81,0,0,1,.67-.07l.65,0c.22,0,.43,0,.65,0a10.4,10.4,0,0,1,1.25.15,9.83,9.83,0,0,1,6.64,4.68,9.09,9.09,0,0,1,1.07,2.63,8.63,8.63,0,0,1,.2,1c0,.15,0,.29,0,.42v.34c0,.2,0,.36,0,.47Z" style="fill:#e0e0e0"></path><path d="M85,171.69a1.13,1.13,0,0,1,0-.12l0-.35,0-.26c0-.09,0-.19,0-.3a5.2,5.2,0,0,0-.16-.76,7,7,0,0,0-.82-2,7.36,7.36,0,0,0-9.74-2.69,8.51,8.51,0,0,0-.9.57,9.06,9.06,0,0,0-.82.71,7.35,7.35,0,0,0-.72.85,7.1,7.1,0,0,0-1,2,7.15,7.15,0,0,0,0,4.6,7.29,7.29,0,0,0,1,2,8.19,8.19,0,0,0,.72.84,9.06,9.06,0,0,0,.82.71,8.51,8.51,0,0,0,.9.57,6.11,6.11,0,0,0,.95.42,7.24,7.24,0,0,0,6.92-1,7.32,7.32,0,0,0,2.69-4,5.48,5.48,0,0,0,.16-.76c0-.12,0-.22,0-.31l0-.26,0-.35a1.13,1.13,0,0,1,0-.12v.73a1.76,1.76,0,0,1,0,.31,5.06,5.06,0,0,1-.14.77,6.88,6.88,0,0,1-.8,2A7.48,7.48,0,0,1,79,179a7.48,7.48,0,0,1-3.92-.31,7.1,7.1,0,0,1-1-.43,6.51,6.51,0,0,1-.92-.59,8,8,0,0,1-.85-.71,8.84,8.84,0,0,1-.73-.87,7,7,0,0,1-1.07-2.06,7.34,7.34,0,0,1,0-4.72,7.09,7.09,0,0,1,1.07-2.06,8.71,8.71,0,0,1,.73-.86,8.11,8.11,0,0,1,.85-.72,7.54,7.54,0,0,1,.92-.59,7.1,7.1,0,0,1,1-.43,7.48,7.48,0,0,1,3.92-.31,7.32,7.32,0,0,1,3.13,1.41A7.48,7.48,0,0,1,84,167.89a6.88,6.88,0,0,1,.8,2,5.06,5.06,0,0,1,.14.77,1.76,1.76,0,0,1,0,.31v.73Z" style="fill:#e0e0e0"></path><path d="M82.26,171.69a9.28,9.28,0,0,0-.18-1.13A4.66,4.66,0,0,0,80.37,168a4.49,4.49,0,0,0-1.93-.85,4.57,4.57,0,0,0-2.41.21,4.2,4.2,0,0,0-1.16.62,4.57,4.57,0,0,0-1,6.39,4.46,4.46,0,0,0,1,1A4.52,4.52,0,0,0,76,176a4.68,4.68,0,0,0,2.41.2,4.58,4.58,0,0,0,1.94-.85,4.69,4.69,0,0,0,1.7-2.53,9.28,9.28,0,0,0,.18-1.13v.3a2.6,2.6,0,0,1,0,.36,3.7,3.7,0,0,1-.09.49,4.71,4.71,0,0,1-3.67,3.51,4.7,4.7,0,0,1-2.5-.2,4.22,4.22,0,0,1-1.2-.64,4.84,4.84,0,0,1-1-1,4.76,4.76,0,0,1-.93-2.81A4.75,4.75,0,0,1,76,167.23a4.88,4.88,0,0,1,2.49-.2,4.8,4.8,0,0,1,2,.9,4.65,4.65,0,0,1,1.69,2.61,3.7,3.7,0,0,1,.09.49,2.6,2.6,0,0,1,0,.36Z" style="fill:#e0e0e0"></path><path d="M95,167s-.28-.65-.71-1.4-.9-1.28-.86-1.31a3.49,3.49,0,0,1,1,1.22A3.7,3.7,0,0,1,95,167Z" style="fill:#f5f5f5"></path><path d="M96.94,168.41c-.06,0-.32-.94-.89-2s-1.18-1.84-1.14-1.87.2.16.45.47a7.78,7.78,0,0,1,.85,1.32,8.17,8.17,0,0,1,.6,1.45A2.19,2.19,0,0,1,96.94,168.41Z" style="fill:#f5f5f5"></path><path d="M96.7,165a5.34,5.34,0,0,1-.59-.73c-.32-.41-.62-.7-.58-.74s.39.21.72.62A1.66,1.66,0,0,1,96.7,165Z" style="fill:#f5f5f5"></path><path d="M94.57,177a9.63,9.63,0,0,1,.5-1.1c.27-.6.41-1.12.46-1.11a3.66,3.66,0,0,1-1,2.21Z" style="fill:#f5f5f5"></path><path d="M95.3,177s.34-.42.62-1,.36-1.09.42-1.09a2,2,0,0,1-.26,1.17A1.94,1.94,0,0,1,95.3,177Z" style="fill:#f5f5f5"></path><path d="M84.08,157.43a10.83,10.83,0,0,1-.36,2,11.3,11.3,0,0,1-.54,1.94,10.83,10.83,0,0,1,.36-2A11.3,11.3,0,0,1,84.08,157.43Z" style="fill:#ebebeb"></path><path d="M81.67,157.72a6.6,6.6,0,0,1,.17,1.85,6.67,6.67,0,0,1-.17,1.85,17.14,17.14,0,0,1,0-1.85A17.05,17.05,0,0,1,81.67,157.72Z" style="fill:#ebebeb"></path><path d="M93.47,176.29c.56-.59.21.32-.91-.75a3.93,3.93,0,0,1-.79-.88,7.88,7.88,0,0,1,1.7,1.63Z" style="fill:#ebebeb"></path><path d="M94.13,174.91a3.2,3.2,0,0,1-1.09-.25,3.39,3.39,0,0,1-1-.42s.48.17,1.09.25C95.87,174.88,94.36,174.49,94.13,174.91Z" style="fill:#ebebeb"></path><path d="M104.28,168.3a12.47,12.47,0,0,1-2.77,1.21,6.3,6.3,0,0,1,1.35-.69C104.67,168,104.46,168.71,104.28,168.3Z" style="fill:#e0e0e0"></path><path d="M104.93,171.38s.43,0-1.78-.16c-1-.08-1.77-.08-1.78-.13a6.13,6.13,0,0,1,1.8-.05A5.59,5.59,0,0,1,104.93,171.38Z" style="fill:#e0e0e0"></path><path d="M189,122.2a33.2,33.2,0,0,0-3.9-8.09,11.15,11.15,0,0,0-7.34-4.77c-3-.37-6.28,1.24-7.26,4.08-.42-6.4-1.33-13-4.54-18.53s-9.18-9.93-15.59-9.53c-6,.37-11.21,4.85-14.08,10.18S132.38,107,131.44,113c-2.29-2.81-7.13-1.93-9.52.8s-3,6.53-3.5,10.12h72Z" style="fill:#f5f5f5"></path><path d="M90.41,78.43A21.8,21.8,0,0,0,87.8,73a7.45,7.45,0,0,0-4.91-3.2A4.56,4.56,0,0,0,78,72.55c-.29-4.28-.89-8.68-3-12.4s-6.15-6.65-10.44-6.39c-4,.25-7.5,3.25-9.43,6.82s-2.58,7.65-3.21,11.65c-1.53-1.88-4.77-1.29-6.37.54s-2,4.37-2.35,6.77H91.42Z" style="fill:#f5f5f5"></path><path d="M462.91,67.73a25.62,25.62,0,0,0-3.05-6.32,8.68,8.68,0,0,0-5.73-3.72,5.3,5.3,0,0,0-5.66,3.19c-.34-5-1.05-10.13-3.55-14.48s-7.17-7.75-12.18-7.44c-4.71.29-8.75,3.79-11,7.95s-3,8.93-3.75,13.59c-1.79-2.19-5.57-1.5-7.43.63s-2.34,5.1-2.74,7.9h56.25Z" style="fill:#f5f5f5"></path><path d="M295.24,52.25a20.42,20.42,0,0,0-2.41-5,6.87,6.87,0,0,0-4.54-3,4.22,4.22,0,0,0-4.49,2.53c-.26-4-.82-8-2.8-11.47s-5.69-6.14-9.65-5.9c-3.73.23-6.93,3-8.71,6.3s-2.39,7.07-3,10.77c-1.42-1.74-4.41-1.19-5.88.49s-1.86,4-2.17,6.27h44.55Z" style="fill:#f5f5f5"></path></g></svg>
